<svg width="16" height="16" viewBox="0 0 16 16" fill="none" xmlns="http://www.w3.org/2000/svg">
<!--
 Copyright 2010-2021, Google Inc.
 All rights reserved.

 Redistribution and use in source and binary forms, with or without
 modification, are permitted provided that the following conditions are
 met:

     * Redistributions of source code must retain the above copyright
 notice, this list of conditions and the following disclaimer.
     * Redistributions in binary form must reproduce the above
 copyright notice, this list of conditions and the following disclaimer
 in the documentation and/or other materials provided with the
 distribution.
     * Neither the name of Google Inc. nor the names of its
 contributors may be used to endorse or promote products derived from
 this software without specific prior written permission.

 THIS SOFTWARE IS PROVIDED BY THE COPYRIGHT HOLDERS AND CONTRIBUTORS
 "AS IS" AND ANY EXPRESS OR IMPLIED WARRANTIES, INCLUDING, BUT NOT
 LIMITED TO, THE IMPLIED WARRANTIES OF MERCHANTABILITY AND FITNESS FOR
 A PARTICULAR PURPOSE ARE DISCLAIMED. IN NO EVENT SHALL THE COPYRIGHT
 OWNER OR CONTRIBUTORS BE LIABLE FOR ANY DIRECT, INDIRECT, INCIDENTAL,
 SPECIAL, EXEMPLARY, OR CONSEQUENTIAL DAMAGES (INCLUDING, BUT NOT
 LIMITED TO, PROCUREMENT OF SUBSTITUTE GOODS OR SERVICES; LOSS OF USE,
 DATA, OR PROFITS; OR BUSINESS INTERRUPTION) HOWEVER CAUSED AND ON ANY
 THEORY OF LIABILITY, WHETHER IN CONTRACT, STRICT LIABILITY, OR TORT
 (INCLUDING NEGLIGENCE OR OTHERWISE) ARISING IN ANY WAY OUT OF THE USE
 OF THIS SOFTWARE, EVEN IF ADVISED OF THE POSSIBILITY OF SUCH DAMAGE.
-->
<rect width="16" height="16" rx="2" fill="url(#paint0_linear)"/>
<path fill-rule="evenodd" clip-rule="evenodd" d="M7.4539 5.7051C7.49399 6.0676 7.502 6.3676 7.502 6.7051C7.502 8.96121 7.58109 9.7442 6.39282 11.3852C6.13629 11.6727 5.88778 12 5.6553 12.125L6.39282 13.0625C7.42731 12.2345 8.0217 11.3057 8.31955 10.1169C8.42521 9.69518 8.45986 9.17895 8.51044 8.70884C8.51126 8.70123 8.51207 8.69362 8.51288 8.686C8.6081 7.78649 8.62139 6.79716 8.62139 5.7125L7.4539 5.7051ZM11.355 3.3125C11.2267 3.3625 10.866 3.4 10.6896 3.4H6.20844C5.88778 3.4 5.55911 3.35 5.2625 3.2875V4.675C5.6072 4.6375 5.88778 4.6 6.20844 4.6L10.4174 4.575C10.184 5.44134 9.67155 6.55 8.9661 7.1875L9.82642 8.08098C10.1298 7.74498 10.5765 7.09619 10.8221 6.60846C11.1047 6.04758 11.4272 5.19757 11.5955 4.575C11.6596 4.425 11.7879 4.1875 11.86 4.05L11.355 3.3125Z" fill="white"/>
<defs>
<linearGradient id="paint0_linear" x1="-8" y1="8" x2="8" y2="24" gradientUnits="userSpaceOnUse">
<stop stop-color="#EF6C00"/>
<stop offset="1" stop-color="#D2660D"/>
</linearGradient>
</defs>
</svg>
