<svg xmlns="http://www.w3.org/2000/svg" width="440" height="440" fill="none"><path fill="url(#a)" d="M433 304.631c0 22.331-8.799 43.747-24.463 59.538-15.663 15.79-36.906 24.661-59.057 24.661-22.151 0-43.395-8.871-59.058-24.661-15.663-15.791-24.463-37.207-24.463-59.538 0-22.331 8.8-43.747 24.463-59.538 15.663-15.79 36.907-24.661 59.058-24.661 22.151 0 43.394 8.871 59.057 24.661C424.201 260.884 433 282.3 433 304.631Z"/><path fill="#FDC976" d="M336.834 382.649c-30.049-4.984-55.057-28.172-65.348-60.595-2.196-6.918-2.19-9.569.011-3.368 7.293 20.582 16.724 33.162 33.538 43.933 24.859 15.926 57.574 18.25 82.392 2.317 20.895-13.412 36.559-33.634 41.795-60.399 1.062-5.426 1.152-5.642.858-2.058-2.258 27.557-17.899 54.323-40.298 68.961-15.348 10.029-34.982 14.185-52.944 11.206l-.002.003h-.002Z"/><g filter="url(#b)"><path fill="#000" fill-opacity=".25" d="M374.759 212.861c0 48.763-19.215 95.529-53.418 130.01-34.202 34.481-80.591 53.852-128.961 53.852-48.37 0-94.76-19.371-128.962-53.852C29.215 308.39 10 261.624 10 212.861c0-48.763 19.215-95.529 53.418-130.01C97.62 48.372 144.01 29 192.38 29c48.37 0 94.759 19.371 128.961 53.852 34.203 34.48 53.418 81.246 53.418 130.009Z"/></g><path fill="url(#c)" d="M370.759 208.861c0 48.763-19.215 95.529-53.418 130.01-34.202 34.481-80.591 53.852-128.961 53.852-48.37 0-94.76-19.371-128.962-53.852C25.215 304.39 6 257.624 6 208.861c0-48.763 19.215-95.529 53.418-130.01C93.62 44.372 140.01 25 188.38 25c48.37 0 94.759 19.371 128.961 53.852 34.203 34.48 53.418 81.246 53.418 130.009Z"/><path fill="#EA7104" d="M160.767 384.597C95.149 374.494 40.542 327.484 18.069 261.754c-4.794-14.024-4.782-19.398.016-6.828 15.926 41.726 42.904 74.301 79.62 96.138 54.283 32.286 123.168 32.281 177.362-.013 45.628-27.19 76.001-70.543 87.436-124.803 2.318-11 2.515-11.438 1.874-4.171-4.931 55.864-39.087 110.127-87.999 139.802-33.513 20.332-76.388 28.758-115.611 22.718Z"/><g filter="url(#d)"><path fill="#E7E5D6" d="M89.163 119.734c7.885.577 15.676.865 23.373.865 11.546 0 22.623-.384 33.231-1.153l.563-6.481.845-9.219c.469-4.897 1.126-10.85 1.971-17.86.469-4.417.751-7.202.845-8.355l21.402 1.44c-1.783 14.5-3.238 27.416-4.365 38.747 27.41-2.977 54.82-8.306 82.231-15.988l2.253 20.309c-26.472 6.818-55.29 11.859-86.455 15.124-1.22 11.619-2.018 24.294-2.394 38.026 12.86-4.705 27.974-7.874 45.34-9.507 1.595-5.185 3.332-11.571 5.209-19.157l21.262 5.042c-.657 3.072-2.159 7.922-4.506 14.547 19.995 2.593 35.859 8.547 47.593 17.861 16.709 13.636 25.063 31.448 25.063 53.438 0 24.198-9.997 43.883-29.991 59.055-15.583 11.811-36.939 19.685-64.067 23.622l-12.391-19.589c23.749-2.593 42.711-8.45 56.886-17.573 18.022-11.522 27.034-26.79 27.034-45.803 0-19.397-8.354-34.233-25.063-44.508-8.449-5.281-18.727-8.642-30.837-10.082-14.831 35.721-34.356 65.248-58.575 88.582.845 8.835 2.488 17.957 4.928 27.367l-20.839 7.923c-.469-2.689-1.502-9.171-3.098-19.445-16.051 11.619-31.165 17.428-45.339 17.428-17.084 0-25.627-10.227-25.627-30.68 0-27.751 14.503-52.813 43.509-75.187 5.539-4.129 13.048-8.834 22.529-14.116.282-13.155 1.127-28.327 2.535-45.516-14.363 1.153-28.068 1.729-41.116 1.729-5.069 0-9.105-.096-12.109-.288l-1.83-20.598m52.239 84.982c-6.571 4.033-13.377 9.843-20.417 17.429-15.02 15.556-23.092 30.776-24.219 45.66 0 1.344-.14 2.352-.422 3.024.281.961.422 2.113.422 3.457 0 6.338 2.77 9.507 8.308 9.507 12.109 0 25.063-6.482 38.862-19.445-1.408-15.364-2.253-35.241-2.534-59.632m60.264-22.181c-13.986 2.016-27.269 5.665-39.848 10.946 0 22.182.423 39.707 1.268 52.574 15.582-17.765 28.442-38.938 38.58-63.52Z"/><path stroke="#E7E5D6" stroke-linecap="round" stroke-linejoin="round" stroke-width="12" d="M89.163 119.734c7.885.577 15.676.865 23.373.865 11.546 0 22.623-.384 33.231-1.153l.563-6.481.845-9.219c.469-4.897 1.126-10.85 1.971-17.86.469-4.417.751-7.202.845-8.355l21.402 1.44c-1.783 14.5-3.238 27.416-4.365 38.747 27.41-2.977 54.82-8.306 82.231-15.988l2.253 20.309c-26.472 6.818-55.29 11.859-86.455 15.124-1.22 11.619-2.018 24.294-2.394 38.026 12.86-4.705 27.974-7.874 45.34-9.507 1.595-5.185 3.332-11.571 5.209-19.157l21.262 5.042c-.657 3.072-2.159 7.922-4.506 14.547 19.995 2.593 35.859 8.547 47.593 17.861 16.709 13.636 25.063 31.448 25.063 53.438 0 24.198-9.997 43.883-29.991 59.055-15.583 11.811-36.939 19.685-64.067 23.622l-12.391-19.589c23.749-2.593 42.711-8.45 56.886-17.573 18.022-11.522 27.034-26.79 27.034-45.803 0-19.397-8.354-34.233-25.063-44.508-8.449-5.281-18.727-8.642-30.837-10.082-14.831 35.721-34.356 65.248-58.575 88.582.845 8.835 2.488 17.957 4.928 27.367l-20.839 7.923c-.469-2.689-1.502-9.171-3.098-19.445-16.051 11.619-31.165 17.428-45.339 17.428-17.084 0-25.627-10.227-25.627-30.68 0-27.751 14.503-52.813 43.509-75.187 5.539-4.129 13.048-8.834 22.529-14.116.282-13.155 1.127-28.327 2.535-45.516-14.363 1.153-28.068 1.729-41.116 1.729-5.069 0-9.105-.096-12.109-.288l-1.83-20.598m52.239 84.982c-6.571 4.033-13.377 9.843-20.417 17.429-15.02 15.556-23.092 30.776-24.219 45.66 0 1.344-.14 2.352-.422 3.024.281.961.422 2.113.422 3.457 0 6.338 2.77 9.507 8.308 9.507 12.109 0 25.063-6.482 38.862-19.445-1.408-15.364-2.253-35.241-2.534-59.632m60.264-22.181c-13.986 2.016-27.269 5.665-39.848 10.946 0 22.182.423 39.707 1.268 52.574 15.582-17.765 28.442-38.938 38.58-63.52Z"/></g><g filter="url(#e)"><path fill="url(#f)" d="M354.363 370.934c0 12.747-5.023 24.972-13.964 33.986-8.941 9.014-21.068 14.078-33.713 14.078-12.644 0-24.771-5.064-33.712-14.078-8.941-9.014-13.964-21.239-13.964-33.986 0-12.748 5.023-24.973 13.964-33.986 8.941-9.014 21.068-14.078 33.712-14.078 12.645 0 24.772 5.064 33.713 14.078 8.941 9.013 13.964 21.238 13.964 33.986Z"/></g><path fill="url(#g)" d="M350.361 366.936c0 12.748-5.024 24.973-13.965 33.986-8.941 9.014-21.067 14.078-33.712 14.078-12.645 0-24.771-5.064-33.712-14.078-8.941-9.013-13.964-21.238-13.964-33.986 0-12.747 5.023-24.972 13.964-33.986 8.941-9.014 21.067-14.078 33.712-14.078 12.645 0 24.771 5.064 33.712 14.078 8.941 9.014 13.965 21.239 13.965 33.986Z"/><path fill="#DDDACC" d="M295.466 411.472c-17.154-2.845-31.429-16.082-37.303-34.59-1.254-3.949-1.251-5.462.005-1.923 4.163 11.749 9.547 18.93 19.145 25.079 14.19 9.091 32.865 10.417 47.032 1.323 11.928-7.656 20.869-19.2 23.858-34.479.606-3.097.658-3.22.49-1.174-1.289 15.73-10.218 31.009-23.004 39.365-8.761 5.725-19.969 8.098-30.222 6.397l-.001.002Z"/><defs><linearGradient id="a" x1="383.545" x2="302.158" y1="333.11" y2="254.173" gradientUnits="userSpaceOnUse"><stop stop-color="#FBB13A"/><stop offset="1" stop-color="#FFE57E"/></linearGradient><linearGradient id="c" x1="262.766" x2="85.045" y1="271.05" y2="98.679" gradientUnits="userSpaceOnUse"><stop stop-color="#DA5B07"/><stop offset="1" stop-color="#F80"/></linearGradient><linearGradient id="f" x1="326.132" x2="279.673" y1="387.191" y2="342.131" gradientUnits="userSpaceOnUse"><stop stop-opacity=".25"/><stop offset="1" stop-color="#F1EFE3"/></linearGradient><linearGradient id="g" x1="322.13" x2="275.671" y1="383.193" y2="338.133" gradientUnits="userSpaceOnUse"><stop stop-color="#D0CEC1"/><stop offset="1" stop-color="#F1EFE3"/></linearGradient><filter id="b" width="372.759" height="375.723" x="6" y="25" color-interpolation-filters="sRGB" filterUnits="userSpaceOnUse"><feFlood flood-opacity="0" result="BackgroundImageFix"/><feBlend in="SourceGraphic" in2="BackgroundImageFix" result="shape"/><feGaussianBlur result="effect1_foregroundBlur_222_82" stdDeviation="2"/></filter><filter id="d" width="246.979" height="262.559" x="69.645" y="71.531" color-interpolation-filters="sRGB" filterUnits="userSpaceOnUse"><feFlood flood-opacity="0" result="BackgroundImageFix"/><feColorMatrix in="SourceAlpha" result="hardAlpha" values="0 0 0 0 0 0 0 0 0 0 0 0 0 0 0 0 0 0 127 0"/><feOffset dx="4" dy="4"/><feGaussianBlur stdDeviation="2"/><feComposite in2="hardAlpha" operator="out"/><feColorMatrix values="0 0 0 0 0 0 0 0 0 0 0 0 0 0 0 0 0 0 0.25 0"/><feBlend in2="BackgroundImageFix" result="effect1_dropShadow_222_82"/><feBlend in="SourceGraphic" in2="effect1_dropShadow_222_82" result="shape"/></filter><filter id="e" width="103.353" height="104.128" x="255.01" y="318.87" color-interpolation-filters="sRGB" filterUnits="userSpaceOnUse"><feFlood flood-opacity="0" result="BackgroundImageFix"/><feBlend in="SourceGraphic" in2="BackgroundImageFix" result="shape"/><feGaussianBlur result="effect1_foregroundBlur_222_82" stdDeviation="2"/></filter></defs></svg>