<svg xmlns="http://www.w3.org/2000/svg" width="16" height="16" fill="none"><g clip-path="url(#a)"><path fill="#fff" fill-rule="evenodd" d="m11.649 13-1.186-3.042H5.527L4.365 13H2.5L6.944 2h2.112L13.5 13h-1.851ZM9.794 8.414 8.645 5.432c-.083-.2-.2-.515-.348-.944a18.78 18.78 0 0 1-.306-.944 15.46 15.46 0 0 1-.662 2.015L6.222 8.414h3.572Z" clip-rule="evenodd"/><path fill="#000" fill-opacity=".75" d="m11.649 13-.186.073.05.127h.136V13Zm-1.186-3.042.186-.073-.05-.127h-.136v.2Zm-4.936 0v-.2h-.138l-.049.128.187.072ZM4.365 13v.2h.138l.05-.129L4.364 13ZM2.5 13l-.185-.075-.111.275H2.5V13ZM6.944 2v-.2h-.135l-.05.125.185.075Zm2.112 0 .186-.075L9.19 1.8h-.135V2ZM13.5 13v.2h.296l-.11-.275L13.5 13ZM9.794 8.414v.2h.291l-.104-.272-.187.072ZM8.645 5.432l.187-.072-.002-.006-.185.078Zm-.654-1.888.193-.054-.205-.734-.182.74.194.048ZM7.33 5.559l-.186-.074v.002l.186.072ZM6.222 8.414l-.186-.072-.106.272h.292v-.2Zm5.613 4.513L10.65 9.885l-.373.145 1.187 3.043.372-.146Zm-1.372-2.97v-.2H6.78v.4H10.462v-.2Zm-3.682-.2H5.527v.4H6.782v-.4Zm-1.44.13-1.163 3.042.374.142 1.162-3.042-.374-.143ZM4.364 12.8H2.5v.4h1.865v-.4Zm-1.68.275 4.444-11-.37-.15-4.444 11 .37.15ZM6.944 2.2h2.112v-.4H6.944v.4Zm1.927-.125 4.444 11 .37-.15-4.443-11-.371.15ZM13.5 12.8h-1.851v.4H13.5v-.4ZM9.98 8.342 8.833 5.36l-.373.144 1.148 2.982.374-.144ZM8.83 5.354a16.907 16.907 0 0 1-.344-.931l-.378.13c.149.43.266.75.353.956l.369-.155Zm-.344-.931a18.62 18.62 0 0 1-.302-.933l-.385.107c.057.206.161.526.31.956l.377-.13Zm-.689-.927a15.262 15.262 0 0 1-.654 1.99l.372.147a15.66 15.66 0 0 0 .67-2.042l-.388-.095Zm-.655 1.991L6.036 8.342l.373.144 1.106-2.854-.373-.145Zm-.92 3.127h3.572v-.4H6.222v.4Z"/></g><defs><clipPath id="a"><path fill="#fff" d="M0 0h16v16H0z"/></clipPath></defs></svg>