<svg xmlns="http://www.w3.org/2000/svg" width="16" height="16" fill="none"><g clip-path="url(#a)"><path fill="#fff" d="M6.663 13H1v-1.16h5.663V13ZM12.635 9.782H9.152l-.729 2.058H6.799L10.195 3h1.402L15 11.84h-1.63l-.735-2.058ZM9.59 8.543h2.606l-1.303-3.667L9.59 8.543Z"/><path stroke="#000" stroke-opacity=".75" stroke-width=".4" d="M6.663 13.2h.2v-1.16h1.701l.048-.133.681-1.925h3.2l.688 1.926.048.132h2.062l-.104-.271-3.403-8.84-.05-.129h-1.676l-.05.128-3.347 8.712H.8V13.2h5.863Zm3.21-4.857 1.02-2.87 1.02 2.87h-2.04Z"/></g><defs><clipPath id="a"><path fill="#fff" d="M0 0h16v16H0z"/></clipPath></defs></svg>