<svg xmlns="http://www.w3.org/2000/svg" width="16" height="16" fill="none"><g clip-path="url(#a)"><path fill="#fff" fill-rule="evenodd" d="m10.627 13-.921-2.974H6.18L5.277 13h-1.59L7.139 2.248h1.64L12.23 13h-1.602ZM9.308 8.518l-.864-2.915c-.063-.196-.15-.503-.262-.923-.111-.42-.188-.728-.23-.923-.113.6-.28 1.257-.498 1.97l-.833 2.79h2.687Z" clip-rule="evenodd"/><path fill="#000" fill-opacity=".75" d="m10.627 13-.191.06.043.14h.148V13Zm-.921-2.974.191-.059-.044-.14h-.147v.2Zm-3.526 0v-.2H6.03l-.043.142.192.058ZM5.277 13v.2h.149l.043-.142L5.277 13Zm-1.59 0-.19-.061-.083.261h.274V13ZM7.139 2.248v-.2h-.145l-.045.139.19.061Zm1.64 0 .191-.061-.045-.139H8.78v.2ZM12.23 13v.2h.275l-.084-.261-.19.061ZM9.31 8.518v.2h.267L9.5 8.46l-.192.057Zm-.865-2.915.192-.057-.001-.005-.19.062Zm-.492-1.846.196-.042-.392.005.196.037Zm-.498 1.97-.191-.059v.002l.19.057Zm-.833 2.79L6.43 8.46l-.076.258h.268v-.2Zm4.197 4.424-.921-2.974-.382.118.92 2.974.383-.118ZM9.706 9.826H6.18v.4h3.526v-.4Zm-3.718.142-.902 2.974.383.116.902-2.974-.383-.116Zm-.71 2.832h-1.59v.4h1.59v-.4Zm-1.4.261L7.328 2.31l-.38-.122-3.45 10.752.38.122Zm3.26-10.613h1.64v-.4h-1.64v.4Zm1.45-.139 3.45 10.752.382-.122L8.969 2.187l-.38.122ZM12.23 12.8h-1.602v.4h1.602v-.4ZM9.5 8.46l-.864-2.914-.384.113.865 2.915.383-.113Zm-.865-2.919c-.062-.19-.148-.493-.26-.913l-.386.103c.112.42.2.732.265.933l.38-.123Zm-.26-.913c-.11-.42-.186-.723-.227-.913l-.391.084c.043.2.12.512.232.932l.387-.103Zm-.62-.908a18.276 18.276 0 0 1-.492 1.948l.382.118c.22-.719.389-1.383.504-1.992l-.393-.074Zm-.493 1.95L6.43 8.46l.384.115.832-2.79-.383-.115Zm-.64 3.048h2.686v-.4H6.621v.4Z"/></g><defs><clipPath id="a"><path fill="#fff" d="M0 0h16v16H0z"/></clipPath></defs></svg>