<svg xmlns="http://www.w3.org/2000/svg" width="16" height="16" fill="none"><g clip-path="url(#a)"><mask id="b" width="13" height="13" x="1.645" y="1.268" fill="#000" maskUnits="userSpaceOnUse"><path fill="#fff" d="M1.645 1.268h13v13h-13z"/><path fill-rule="evenodd" d="M7.086 7.56a6.952 6.952 0 0 1 2.12-.351h.067a8.474 8.474 0 0 1-1.984 2.997 13.768 13.768 0 0 1-.203-2.322v-.325Zm-2.498 4.117c-.458 0-.688-.243-.688-.742 0-.918.823-2.107 1.998-2.835 0 1.026.122 2.065.297 2.997-.58.378-1.147.58-1.607.58Zm5.198-6.399c-.027.23-.081.608-.149.85-.121-.013-.256-.013-.378-.013-.661 0-1.43.108-2.133.297.041-.486.081-.972.122-1.431 1.634-.081 3.416-.256 4.766-.486L12 3.253c-1.418.324-2.943.5-4.59.567.04-.324.095-.621.149-.877.04-.19.094-.433.175-.648L6.33 2.268c0 .189-.014.472-.04.702-.027.256-.054.553-.095.89h-.716c-.688 0-1.849-.094-2.321-.175l.04 1.256c.58.027 1.607.08 2.241.08h.635c-.054.581-.109 1.202-.135 1.823-1.837.864-3.295 2.632-3.295 4.333 0 1.229.743 1.796 1.675 1.796.715 0 1.484-.257 2.16-.648.067.243.135.459.202.648l1.215-.365a15.991 15.991 0 0 1-.31-1.039c1.08-.891 2.146-2.336 2.875-4.185 1.107.351 1.688 1.175 1.688 2.092 0 1.54-1.296 2.795-3.767 3.065l.716 1.12c3.159-.486 4.36-2.227 4.36-4.117 0-1.512-1.013-2.727-2.619-3.213.081-.23.189-.554.256-.729l-1.309-.324Z" clip-rule="evenodd"/></mask><path fill="#fff" fill-rule="evenodd" d="M7.086 7.56a6.952 6.952 0 0 1 2.12-.351h.067a8.474 8.474 0 0 1-1.984 2.997 13.768 13.768 0 0 1-.203-2.322v-.325Zm-2.498 4.117c-.458 0-.688-.243-.688-.742 0-.918.823-2.107 1.998-2.835 0 1.026.122 2.065.297 2.997-.58.378-1.147.58-1.607.58Zm5.198-6.399c-.027.23-.081.608-.149.85-.121-.013-.256-.013-.378-.013-.661 0-1.43.108-2.133.297.041-.486.081-.972.122-1.431 1.634-.081 3.416-.256 4.766-.486L12 3.253c-1.418.324-2.943.5-4.59.567.04-.324.095-.621.149-.877.04-.19.094-.433.175-.648L6.33 2.268c0 .189-.014.472-.04.702-.027.256-.054.553-.095.89h-.716c-.688 0-1.849-.094-2.321-.175l.04 1.256c.58.027 1.607.08 2.241.08h.635c-.054.581-.109 1.202-.135 1.823-1.837.864-3.295 2.632-3.295 4.333 0 1.229.743 1.796 1.675 1.796.715 0 1.484-.257 2.16-.648.067.243.135.459.202.648l1.215-.365a15.991 15.991 0 0 1-.31-1.039c1.08-.891 2.146-2.336 2.875-4.185 1.107.351 1.688 1.175 1.688 2.092 0 1.54-1.296 2.795-3.767 3.065l.716 1.12c3.159-.486 4.36-2.227 4.36-4.117 0-1.512-1.013-2.727-2.619-3.213.081-.23.189-.554.256-.729l-1.309-.324Z" clip-rule="evenodd"/><path fill="#000" fill-opacity=".75" d="m7.086 7.56-.121-.382-.279.089v.292h.4Zm2.187-.351.372.147.217-.547h-.589v.4Zm-1.984 2.997-.395.067.128.755.547-.537-.28-.285ZM5.897 8.1h.4v-.72l-.61.38.21.34Zm.297 2.997.218.335.225-.146-.05-.264-.393.075Zm3.591-5.819.096-.388-.44-.11-.053.451.397.047Zm-.149.85-.044.398.339.038.09-.328-.385-.107Zm-2.51.284-.4-.033-.046.567.55-.148-.104-.386Zm.121-1.431-.02-.4-.348.018-.03.347.398.035Zm4.766-.486.067.394.336-.057-.003-.341-.4.004ZM12 3.253l.4-.004-.005-.497-.484.111.089.39Zm-4.59.567-.397-.05-.058.469.471-.02-.016-.399Zm.149-.877-.392-.084v.001l.392.083Zm.175-.648.375.14.198-.53-.565-.01-.008.4ZM6.33 2.268l.008-.4-.408-.008v.407h.4Zm-.04.702-.398-.047v.005l.397.042Zm-.095.89v.4h.355l.042-.352-.397-.047Zm-3.038-.175.068-.394-.483-.083.016.49.4-.013Zm.041 1.256-.4.012.012.37.37.017.018-.4Zm2.876.08.398.038.04-.438h-.438v.4Zm-.135 1.823.17.362.219-.103.01-.242-.4-.017Zm.54 5.481.385-.107-.139-.499-.447.26.2.346Zm.202.648-.377.134.128.358.364-.109-.115-.383Zm1.215-.365.115.384.395-.119-.13-.391-.38.127Zm-.31-1.039-.255-.309-.197.163.064.246.387-.1Zm2.875-4.185.12-.381-.355-.113-.137.347.372.147Zm-2.079 5.157-.043-.398-.64.07.346.543.337-.215Zm.716 1.12-.338.216.14.22.258-.04-.06-.396Zm1.741-7.33-.377-.133-.14.395.401.12.116-.382Zm.256-.729.374.144.163-.423-.44-.11-.097.389ZM7.207 7.941a6.553 6.553 0 0 1 1.999-.332v-.8a7.35 7.35 0 0 0-2.241.37l.242.762Zm1.999-.332h.067v-.8h-.067v.8ZM8.9 7.06a8.074 8.074 0 0 1-1.893 2.86l.56.57a8.873 8.873 0 0 0 2.077-3.135L8.9 7.06ZM7.683 10.14a13.368 13.368 0 0 1-.197-2.255h-.8c0 .863.084 1.655.208 2.389l.789-.134Zm-.197-2.255v-.325h-.8v.324h.8Zm-2.897 3.393c-.162 0-.21-.042-.224-.057-.02-.02-.065-.09-.065-.286h-.8c0 .304.069.606.28.832.215.231.511.311.808.311v-.8Zm-.289-.342c0-.348.16-.795.486-1.26.321-.457.78-.9 1.323-1.236l-.422-.68a5.4 5.4 0 0 0-1.556 1.457c-.38.542-.631 1.148-.631 1.719h.8ZM5.498 8.1c0 1.056.125 2.12.304 3.07l.786-.148a16.063 16.063 0 0 1-.29-2.922h-.8Zm.479 2.661c-.545.355-1.036.516-1.389.516v.8c.566 0 1.209-.244 1.825-.645l-.436-.67Zm3.412-5.53a6.27 6.27 0 0 1-.137.79l.77.215c.077-.276.134-.68.161-.911L9.39 5.23Zm.293.5c-.148-.016-.306-.016-.423-.016v.8c.127 0 .239 0 .334.011l.089-.795Zm-.423-.016c-.7 0-1.504.114-2.236.31l.207.773a8.144 8.144 0 0 1 2.03-.283v-.8Zm-1.734.73c.04-.486.081-.971.121-1.429l-.796-.07c-.041.46-.082.947-.122 1.433l.797.066Zm-.257-1.064c1.644-.082 3.443-.259 4.813-.492l-.134-.788c-1.33.226-3.096.4-4.719.48l.04.8Zm5.146-.89L12.4 3.249l-.8.008.014 1.242.8-.008Zm-.503-1.628c-1.388.317-2.888.49-4.517.557l.032.8c1.665-.069 3.216-.246 4.663-.577l-.178-.78ZM7.807 3.87c.039-.311.09-.597.143-.845l-.783-.165c-.056.265-.112.573-.154.91l.794.1Zm.143-.844c.04-.19.09-.406.159-.591l-.75-.281a5.065 5.065 0 0 0-.192.705l.783.167Zm-.208-1.131-1.404-.027-.016.8 1.404.026.016-.8Zm-1.812.373c0 .175-.013.443-.038.655l.795.093c.029-.247.043-.546.043-.748h-.8Zm-.038.66c-.028.263-.054.55-.094.885l.794.095c.041-.34.07-.647.095-.897l-.795-.083Zm.303.533H5.479v.8H6.196v-.8Zm-.716 0c-.67 0-1.808-.094-2.254-.17l-.135.788c.499.086 1.683.182 2.39.182v-.8Zm-2.721.237.04 1.255.8-.025-.04-1.256-.8.026Zm.421 1.642c.574.027 1.613.082 2.26.082v-.8c-.622 0-1.635-.054-2.222-.081l-.038.8Zm2.26.082H6.074v-.8H5.438v.8Zm.236-.438a37.59 37.59 0 0 0-.136 1.843l.8.034c.026-.61.079-1.223.133-1.802l-.797-.075Zm.093 1.498a6.919 6.919 0 0 0-2.48 1.97c-.632.81-1.043 1.762-1.043 2.726h.8c0-.738.317-1.521.874-2.235a6.12 6.12 0 0 1 2.19-1.737l-.34-.724Zm-3.523 4.696c0 .696.212 1.257.608 1.644.392.384.92.551 1.466.551v-.8c-.386 0-.696-.117-.907-.323-.209-.204-.367-.54-.367-1.072h-.8Zm2.074 2.195c.804 0 1.643-.286 2.36-.702l-.401-.692c-.633.367-1.333.594-1.96.594v.8Zm1.774-.94c.07.25.14.475.211.675l.754-.27a9.104 9.104 0 0 1-.194-.62l-.77.214Zm.703.923 1.215-.364-.23-.767-1.215.365.23.766Zm1.48-.874c-.106-.318-.212-.66-.303-1.013l-.775.2c.098.376.208.736.319 1.066l.758-.253Zm-.436-.604c1.14-.94 2.243-2.444 2.993-4.347l-.744-.294c-.708 1.796-1.737 3.181-2.758 4.024l.509.617Zm2.5-4.113c.96.305 1.409.987 1.409 1.712h.8c0-1.112-.713-2.077-1.967-2.474l-.242.762Zm1.409 1.712c0 .646-.269 1.236-.817 1.703-.555.474-1.413.834-2.593.963l.086.796c1.29-.141 2.316-.544 3.026-1.15.718-.612 1.098-1.42 1.098-2.313h-.8Zm-3.704 3.28.715 1.12.675-.43-.716-1.121-.674.43Zm1.113 1.3c1.642-.253 2.822-.839 3.595-1.652.775-.817 1.105-1.828 1.105-2.861h-.8c0 .857-.27 1.662-.886 2.31-.618.651-1.618 1.179-3.135 1.412l.121.79Zm4.7-4.513c0-1.72-1.16-3.068-2.903-3.596l-.232.766c1.47.444 2.335 1.525 2.335 2.83h.8Zm-2.642-3.08c.086-.243.188-.55.253-.718l-.747-.288c-.07.182-.184.524-.26.74l.754.266Zm-.024-1.25-1.31-.324-.192.776L11 5.99l.192-.776Z" mask="url(#b)"/></g><defs><clipPath id="a"><path fill="#fff" d="M0 0h16v16H0z"/></clipPath></defs></svg>