<svg xmlns="http://www.w3.org/2000/svg" width="16" height="16" fill="none"><g clip-path="url(#a)"><path fill="#fff" fill-rule="evenodd" d="M7.454 5.705c.04.363.048.663.048 1 0 2.256.08 3.04-1.11 4.68-.256.288-.504.615-.737.74l.738.938c1.034-.829 1.629-1.757 1.927-2.946.105-.422.14-.938.19-1.408l.003-.023c.095-.9.108-1.889.108-2.973l-1.167-.008Zm3.901-2.393c-.128.05-.489.088-.665.088H6.208c-.32 0-.649-.05-.946-.112v1.387c.345-.037.626-.075.946-.075l4.21-.025c-.234.866-.746 1.975-1.452 2.612l.86.894a7.94 7.94 0 0 0 .996-1.473c.283-.56.605-1.41.774-2.033.064-.15.192-.388.264-.525l-.505-.737Z" clip-rule="evenodd"/><path fill="#000" fill-opacity=".75" d="m7.454 5.705.001-.2-.225-.001.025.223.199-.022Zm-1.061 5.68.149.133.007-.007.006-.008-.162-.118Zm-.738.74-.094-.176-.21.113.147.187.157-.124Zm.738.938-.157.123.124.159.158-.126-.125-.156Zm1.927-2.946.194.048-.194-.048Zm.19-1.408.2.021-.2-.021Zm.003-.023-.199-.021.199.021Zm.108-2.973h.2v-.2h-.198l-.002.2Zm2.734-2.4.165-.114-.09-.13-.148.057.073.187Zm-6.093-.026.042-.195-.242-.051v.247h.2Zm0 1.388h-.2v.223l.222-.024-.021-.199Zm.946-.075v.2h.002l-.002-.2Zm4.21-.025.193.052.068-.254-.263.002.001.2ZM8.965 7.187l-.134-.148-.153.139.143.148.144-.138Zm.86.894-.144.139.15.154.143-.159-.149-.134Zm.996-1.473-.178-.09.178.09Zm.774-2.033-.184-.079-.006.013-.004.014.194.052Zm.264-.525.177.093.056-.107-.068-.099-.165.113ZM7.255 5.727c.04.352.047.644.047.978h.4c0-.341-.008-.65-.05-1.022l-.397.044Zm.047.978c0 1.14.019 1.874-.106 2.534-.121.645-.383 1.224-.965 2.029l.324.234c.606-.836.899-1.469 1.035-2.19.133-.705.112-1.49.112-2.607h-.4Zm-1.058 4.547c-.14.155-.251.293-.376.428a1.344 1.344 0 0 1-.307.269l.189.352a1.71 1.71 0 0 0 .412-.35c.122-.131.262-.3.38-.433l-.298-.266Zm-.746.997.738.937.314-.247L5.813 12l-.315.248Zm1.02.97c1.067-.855 1.687-1.82 1.996-3.053l-.388-.098c-.287 1.145-.856 2.037-1.858 2.838l.25.313Zm1.996-3.053c.11-.44.146-.98.195-1.436l-.397-.043c-.052.484-.085.977-.186 1.381l.388.098Zm.195-1.436.003-.023-.398-.042-.002.022.397.043Zm.003-.023c.096-.911.11-1.91.11-2.995h-.4c0 1.085-.014 2.065-.108 2.953l.398.042Zm-.09-3.195-1.167-.007-.002.4 1.167.007.003-.4Zm2.66-2.386a1.436 1.436 0 0 1-.266.05 3.025 3.025 0 0 1-.326.024v.4c.098 0 .241-.01.375-.026.126-.016.272-.04.363-.075l-.146-.373Zm-.592.074H6.208v.4h4.482v-.4Zm-4.482 0c-.3 0-.615-.047-.904-.108l-.083.391c.304.064.647.117.987.117v-.4Zm-1.146.087v1.388h.4V3.288h-.4Zm.222 1.587c.351-.038.618-.074.924-.074v-.4c-.334 0-.629.04-.967.076l.043.398ZM6.21 4.8l4.208-.025-.002-.4-4.209.025.003.4Zm4.014-.277c-.228.848-.727 1.915-1.392 2.516l.268.297c.746-.674 1.272-1.825 1.51-2.709l-.386-.104ZM8.822 7.326l.86.894.288-.278-.86-.893-.288.277Zm1.153.889A8.137 8.137 0 0 0 11 6.698l-.357-.18a7.75 7.75 0 0 1-.966 1.429l.297.268ZM11 6.698c.289-.573.616-1.436.788-2.07l-.387-.105c-.164.61-.482 1.447-.758 1.995l.357.18Zm.778-2.044c.06-.14.183-.368.258-.511l-.354-.186c-.07.132-.203.38-.271.54l.367.157Zm.246-.717L11.52 3.2l-.33.225.505.738.33-.226Z"/></g><defs><clipPath id="a"><path fill="#fff" d="M0 0h16v16H0z"/></clipPath></defs></svg>