<svg xmlns="http://www.w3.org/2000/svg" width="16" height="16" fill="none"><g clip-path="url(#a)"><path fill="#fff" fill-rule="evenodd" d="M7.1 5.713c.063.362.075.662.075 1 0 2.074-.287 3.65-2.075 4.8-.4.287-.837.487-1.2.612l1.15.938c3.288-1.688 3.475-4.088 3.475-7.35H7.1Zm5.688-2.4c-.2.05-.763.087-1.038.087H4.763c-.5 0-1.013-.05-1.475-.112v1.387c.537-.037.975-.075 1.475-.075h6.85c-.363.713-1.45 1.95-2.55 2.588l1.037.837c1.338-.95 2.525-2.538 3.063-3.45.1-.15.3-.388.412-.525l-.787-.737Z" clip-rule="evenodd"/><path fill="#000" fill-opacity=".75" d="M7.1 5.713v-.2h-.237l.04.233.197-.034Zm-2 5.8-.108-.169-.009.006.117.162Zm-1.2.612-.065-.19-.34.118.279.227.126-.155Zm1.15.938-.126.154.101.083.116-.06-.091-.178Zm3.475-7.35h.2v-.2h-.2v.2Zm4.262-2.4.137-.146-.08-.075-.105.026.048.195Zm-9.5-.026.027-.198-.227-.03v.228h.2Zm0 1.388h-.2v.214l.214-.014-.014-.2Zm8.326-.075.178.09.148-.29h-.326v.2Zm-2.55 2.588-.1-.174-.253.146.227.183.126-.155Zm1.037.837-.126.156.118.095.124-.088-.116-.163Zm3.063-3.45-.167-.111-.006.01.172.101Zm.412-.525.155.127.118-.145-.136-.128-.137.146ZM6.903 5.746c.06.347.072.635.072.966h.4c0-.343-.013-.655-.078-1.033l-.394.067Zm.072.966c0 1.033-.072 1.916-.355 2.678-.28.755-.77 1.402-1.628 1.954l.216.337c.929-.598 1.476-1.313 1.787-2.152.308-.832.38-1.774.38-2.816h-.4ZM4.983 11.35c-.38.274-.8.466-1.148.586l.13.378c.376-.13.832-.338 1.252-.64l-.234-.324Zm-1.21.93 1.15.938.253-.31-1.15-.938-.252.31Zm1.368.96c1.682-.863 2.589-1.92 3.067-3.191.472-1.258.517-2.709.517-4.336h-.4c0 1.634-.049 3.015-.492 4.195-.438 1.166-1.269 2.152-2.874 2.977l.182.355Zm3.384-7.728H7.1v.4h1.425v-.4Zm4.214-2.394c-.082.02-.256.042-.458.058a7.59 7.59 0 0 1-.531.024v.4c.144 0 .36-.01.563-.026.198-.015.404-.038.523-.067l-.097-.389Zm-.989.082H4.763v.4h6.987v-.4Zm-6.987 0c-.488 0-.99-.049-1.449-.11l-.053.396c.467.063.99.114 1.502.114v-.4Zm-1.675.087v1.388h.4V3.288h-.4ZM3.3 4.876c.542-.038.97-.075 1.462-.075v-.4c-.51 0-.956.038-1.49.075l.028.4ZM4.763 4.8h6.85v-.4h-6.85v.4Zm6.671-.29c-.169.332-.518.804-.965 1.274-.446.47-.978.924-1.507 1.23l.2.347c.572-.332 1.134-.814 1.597-1.301.462-.486.838-.99 1.032-1.37l-.357-.18ZM8.937 7.342l1.037.838.252-.312-1.038-.837-.251.311Zm1.279.845c1.369-.972 2.573-2.586 3.119-3.511l-.345-.204c-.53.9-1.7 2.461-3.006 3.389l.232.326Zm3.113-3.502c.093-.14.283-.365.4-.51l-.309-.253c-.107.131-.317.38-.424.541l.333.222Zm.383-.782-.788-.737-.273.291.787.738.274-.292Z"/></g><defs><clipPath id="a"><path fill="#fff" d="M0 0h16v16H0z"/></clipPath></defs></svg>